<svg width="606" height="68" viewBox="0 0 606 68" fill="none" xmlns="http://www.w3.org/2000/svg">
<path d="M34.1562 64.2656V66H0.921875V64.2656H3.03125C4.875 64.2656 6.35938 63.9375 7.48438 63.2812C8.29688 62.8438 8.92188 62.0938 9.35938 61.0312C9.70312 60.2812 9.875 58.3125 9.875 55.125V13.3125C9.875 10.0625 9.70312 8.03125 9.35938 7.21875C9.01562 6.40625 8.3125 5.70313 7.25 5.10938C6.21875 4.48438 4.8125 4.17188 3.03125 4.17188H0.921875V2.4375H34.1562V4.17188H32.0469C30.2031 4.17188 28.7188 4.5 27.5938 5.15625C26.7812 5.59375 26.1406 6.34375 25.6719 7.40625C25.3281 8.15625 25.1562 10.125 25.1562 13.3125V55.125C25.1562 58.375 25.3281 60.4062 25.6719 61.2188C26.0469 62.0312 26.75 62.75 27.7812 63.375C28.8438 63.9688 30.2656 64.2656 32.0469 64.2656H34.1562ZM102.641 0.984375V23.3906H100.906C98.8125 17.2656 95.6719 12.6094 91.4844 9.42188C87.2969 6.23438 82.7188 4.64062 77.75 4.64062C73 4.64062 69.0469 5.98438 65.8906 8.67188C62.7344 11.3281 60.5 15.0469 59.1875 19.8281C57.875 24.6094 57.2188 29.5156 57.2188 34.5469C57.2188 40.6406 57.9375 45.9844 59.375 50.5781C60.8125 55.1719 63.125 58.5469 66.3125 60.7031C69.5312 62.8594 73.3438 63.9375 77.75 63.9375C79.2812 63.9375 80.8438 63.7812 82.4375 63.4688C84.0625 63.125 85.7188 62.6406 87.4062 62.0156V48.7969C87.4062 46.2969 87.2344 44.6875 86.8906 43.9688C86.5469 43.2188 85.8281 42.5469 84.7344 41.9531C83.6719 41.3594 82.375 41.0625 80.8438 41.0625H79.2031V39.3281H110.094V41.0625C107.75 41.2188 106.109 41.5469 105.172 42.0469C104.266 42.5156 103.562 43.3125 103.062 44.4375C102.781 45.0312 102.641 46.4844 102.641 48.7969V62.0156C98.5781 63.8281 94.3438 65.1875 89.9375 66.0938C85.5625 67.0312 81.0156 67.5 76.2969 67.5C70.2656 67.5 65.25 66.6875 61.25 65.0625C57.2812 63.4062 53.7656 61.25 50.7031 58.5938C47.6719 55.9062 45.2969 52.8906 43.5781 49.5469C41.3906 45.2344 40.2969 40.4062 40.2969 35.0625C40.2969 25.5 43.6562 17.4219 50.375 10.8281C57.0938 4.23437 65.5469 0.9375 75.7344 0.9375C78.8906 0.9375 81.7344 1.1875 84.2656 1.6875C85.6406 1.9375 87.8594 2.65625 90.9219 3.84375C94.0156 5 95.8438 5.57812 96.4062 5.57812C97.2812 5.57812 98.0938 5.26562 98.8438 4.64062C99.5938 3.98438 100.281 2.76562 100.906 0.984375H102.641ZM113.375 2.4375H146.188V4.17188H144.547C142.078 4.17188 140.375 4.4375 139.438 4.96875C138.531 5.46875 137.875 6.17188 137.469 7.07812C137.094 7.98437 136.906 10.25 136.906 13.875V45C136.906 50.6875 137.328 54.4531 138.172 56.2969C139.047 58.1406 140.469 59.6719 142.438 60.8906C144.406 62.1094 146.891 62.7188 149.891 62.7188C153.328 62.7188 156.25 61.9531 158.656 60.4219C161.094 58.8594 162.906 56.7188 164.094 54C165.312 51.2812 165.922 46.5469 165.922 39.7969V13.875C165.922 11.0312 165.625 9 165.031 7.78125C164.438 6.5625 163.688 5.71875 162.781 5.25C161.375 4.53125 159.391 4.17188 156.828 4.17188V2.4375H178.812V4.17188H177.5C175.719 4.17188 174.234 4.53125 173.047 5.25C171.859 5.96875 171 7.04687 170.469 8.48438C170.062 9.48437 169.859 11.2812 169.859 13.875V38.0156C169.859 45.4844 169.359 50.875 168.359 54.1875C167.391 57.5 165 60.5469 161.188 63.3281C157.375 66.1094 152.172 67.5 145.578 67.5C140.078 67.5 135.828 66.7656 132.828 65.2969C128.734 63.2969 125.844 60.7344 124.156 57.6094C122.469 54.4844 121.625 50.2812 121.625 45V13.875C121.625 10.2188 121.422 7.95313 121.016 7.07812C120.609 6.17188 119.906 5.45312 118.906 4.92188C117.906 4.39063 116.062 4.14062 113.375 4.17188V2.4375ZM220.438 47.9062H197.984L195.312 54.0938C194.438 56.1562 194 57.8594 194 59.2031C194 60.9844 194.719 62.2969 196.156 63.1406C197 63.6406 199.078 64.0156 202.391 64.2656V66H181.25V64.2656C183.531 63.9219 185.406 62.9844 186.875 61.4531C188.344 59.8906 190.156 56.6875 192.312 51.8438L215.047 1.125H215.938L238.859 53.25C241.047 58.1875 242.844 61.2969 244.25 62.5781C245.312 63.5469 246.812 64.1094 248.75 64.2656V66H218V64.2656H219.266C221.734 64.2656 223.469 63.9219 224.469 63.2344C225.156 62.7344 225.5 62.0156 225.5 61.0781C225.5 60.5156 225.406 59.9375 225.219 59.3438C225.156 59.0625 224.688 57.8906 223.812 55.8281L220.438 47.9062ZM218.844 44.4375L209.375 22.5469L199.625 44.4375H218.844ZM273.781 2.4375L305.141 41.8594V14.5312C305.141 10.7188 304.594 8.14063 303.5 6.79688C302 4.98437 299.484 4.10938 295.953 4.17188V2.4375H316.953V4.17188C314.266 4.51562 312.453 4.96875 311.516 5.53125C310.609 6.0625 309.891 6.95312 309.359 8.20312C308.859 9.42188 308.609 11.5312 308.609 14.5312V67.4531H307.016L264.031 14.5312V54.9375C264.031 58.5938 264.859 61.0625 266.516 62.3438C268.203 63.625 270.125 64.2656 272.281 64.2656H273.781V66H251.234V64.2656C254.734 64.2344 257.172 63.5156 258.547 62.1094C259.922 60.7031 260.609 58.3125 260.609 54.9375V10.0781L259.25 8.39062C257.906 6.70312 256.719 5.59375 255.688 5.0625C254.656 4.53125 253.172 4.23437 251.234 4.17188V2.4375H273.781ZM356.328 1.54688C366.453 1.17188 374.672 4.125 380.984 10.4062C387.328 16.6875 390.5 24.5469 390.5 33.9844C390.5 42.0469 388.141 49.1406 383.422 55.2656C377.172 63.3906 368.344 67.4531 356.938 67.4531C345.5 67.4531 336.656 63.5781 330.406 55.8281C325.469 49.7031 323 42.4375 323 34.0312C323 24.5938 326.203 16.7344 332.609 10.4531C339.047 4.14062 346.953 1.17188 356.328 1.54688ZM356.891 4.54688C351.078 4.54688 346.656 7.51562 343.625 13.4531C341.156 18.3281 339.922 25.3281 339.922 34.4531C339.922 45.2969 341.828 53.3125 345.641 58.5C348.297 62.125 352.016 63.9375 356.797 63.9375C360.016 63.9375 362.703 63.1562 364.859 61.5938C367.609 59.5938 369.75 56.4062 371.281 52.0312C372.812 47.625 373.578 41.8906 373.578 34.8281C373.578 26.4219 372.797 20.1406 371.234 15.9844C369.672 11.7969 367.672 8.84375 365.234 7.125C362.828 5.40625 360.047 4.54688 356.891 4.54688ZM395.234 66V64.2656H397.344C399.188 64.2656 400.594 63.9844 401.562 63.4219C402.562 62.8281 403.297 62.0312 403.766 61.0312C404.047 60.375 404.188 58.4062 404.188 55.125V13.3125C404.188 10.0625 404.016 8.03125 403.672 7.21875C403.328 6.40625 402.625 5.70313 401.562 5.10938C400.531 4.48438 399.125 4.17188 397.344 4.17188H395.234V2.4375H423.688C431.281 2.4375 437.391 3.46875 442.016 5.53125C447.672 8.0625 451.953 11.8906 454.859 17.0156C457.797 22.1406 459.266 27.9375 459.266 34.4062C459.266 38.875 458.547 43 457.109 46.7812C455.672 50.5312 453.812 53.6406 451.531 56.1094C449.25 58.5469 446.609 60.5156 443.609 62.0156C440.641 63.4844 437 64.625 432.688 65.4375C430.781 65.8125 427.781 66 423.688 66H395.234ZM419.469 6.04688V55.6406C419.469 58.2656 419.594 59.875 419.844 60.4688C420.094 61.0625 420.516 61.5156 421.109 61.8281C421.953 62.2969 423.172 62.5312 424.766 62.5312C429.984 62.5312 433.969 60.75 436.719 57.1875C440.469 52.375 442.344 44.9062 442.344 34.7812C442.344 26.625 441.062 20.1094 438.5 15.2344C436.469 11.4219 433.859 8.82812 430.672 7.45312C428.422 6.48437 424.688 6.01562 419.469 6.04688ZM500.422 1.54688C510.547 1.17188 518.766 4.125 525.078 10.4062C531.422 16.6875 534.594 24.5469 534.594 33.9844C534.594 42.0469 532.234 49.1406 527.516 55.2656C521.266 63.3906 512.438 67.4531 501.031 67.4531C489.594 67.4531 480.75 63.5781 474.5 55.8281C469.562 49.7031 467.094 42.4375 467.094 34.0312C467.094 24.5938 470.297 16.7344 476.703 10.4531C483.141 4.14062 491.047 1.17188 500.422 1.54688ZM500.984 4.54688C495.172 4.54688 490.75 7.51562 487.719 13.4531C485.25 18.3281 484.016 25.3281 484.016 34.4531C484.016 45.2969 485.922 53.3125 489.734 58.5C492.391 62.125 496.109 63.9375 500.891 63.9375C504.109 63.9375 506.797 63.1562 508.953 61.5938C511.703 59.5938 513.844 56.4062 515.375 52.0312C516.906 47.625 517.672 41.8906 517.672 34.8281C517.672 26.4219 516.891 20.1406 515.328 15.9844C513.766 11.7969 511.766 8.84375 509.328 7.125C506.922 5.40625 504.141 4.54688 500.984 4.54688ZM561.969 2.4375L593.328 41.8594V14.5312C593.328 10.7188 592.781 8.14063 591.688 6.79688C590.188 4.98437 587.672 4.10938 584.141 4.17188V2.4375H605.141V4.17188C602.453 4.51562 600.641 4.96875 599.703 5.53125C598.797 6.0625 598.078 6.95312 597.547 8.20312C597.047 9.42188 596.797 11.5312 596.797 14.5312V67.4531H595.203L552.219 14.5312V54.9375C552.219 58.5938 553.047 61.0625 554.703 62.3438C556.391 63.625 558.312 64.2656 560.469 64.2656H561.969V66H539.422V64.2656C542.922 64.2344 545.359 63.5156 546.734 62.1094C548.109 60.7031 548.797 58.3125 548.797 54.9375V10.0781L547.438 8.39062C546.094 6.70312 544.906 5.59375 543.875 5.0625C542.844 4.53125 541.359 4.23437 539.422 4.17188V2.4375H561.969Z" fill="#3305B8"/>
</svg>
